<svg xmlns="http://www.w3.org/2000/svg" xmlns:xlink="http://www.w3.org/1999/xlink" id="svg5145" x="0" y="0" version="1.1" viewBox="53.5 -1000 2500 2500" xml:space="preserve" style="enable-background:new 53.5 -1000 2500 2500"><g id="layer1"><g id="g5748"><path id="rect5704" d="M564.074-224.449l277.444-273.463L2042.704,720.761l-277.444,273.463 L564.074-224.449z" style="fill:#1b75bc"/><path id="rect5708" d="M557.567,710.03L1776.24-491.157l273.463,277.444L831.03,987.474L557.567,710.03z" style="fill:#1b75bc"/><path id="rect5710" d="M860.328,1013.309l227.944-224.674l431.54,437.821l-227.944,224.674 L860.328,1013.309z" style="fill:#3c3c3b"/><path id="rect5712" d="M1067.43,1223.274l437.821-431.539l224.674,227.944l-437.821,431.539 L1067.43,1223.274z" style="fill:#3c3c3b"/><path id="rect5714" d="M1092.88-726.361l227.944-224.674l431.539,437.821L1524.42-288.54L1092.88-726.361z" style="fill:#3c3c3b"/><path id="rect5716" d="M883.015-519.828l437.821-431.539l224.674,227.944l-437.821,431.539L883.015-519.828 z" style="fill:#3c3c3b"/></g></g></svg>