<svg xmlns="http://www.w3.org/2000/svg" xmlns:xlink="http://www.w3.org/1999/xlink" id="alis" x="0" y="0" version="1.1" viewBox="0 0 500 500" xml:space="preserve" style="enable-background:new 0 0 500 500"><style type="text/css">.st0{fill:#848de0}.st1{fill:#5b639b}.st2{fill:#676fb0}.st3{fill:#444a74}.st4{fill:#52578b}.st5{fill:#7780cb}.st6{fill:#5b639c}</style><polygon points="135.7 473 250.7 177.6 366.3 473 496 473 309.5 27.9 190.5 27.9 3.7 473" class="st0"/><polygon points="309.5 27.9 250.7 177.6 393.3 229" class="st1"/><polygon points="250.7 177.6 298.8 300.1 393.3 229" class="st2"/><polygon points="393.3 229 496 473 298.8 300.1" class="st3"/><polygon points="298.8 300.1 366.3 473 496 473" class="st4"/><polygon points="250.7 177.6 190.5 27.9 309.5 27.9" class="st0"/><polygon points="250.7 177.6 190.5 27.9 157 108.4" class="st5"/><polygon points="250.7 177.6 157 108.4 107 227.2" class="st2"/><polygon points="250.7 177.6 107 227.2 203.1 299.9" class="st6"/><polygon points="203.1 299.9 3.7 473 107 227.2" class="st4"/><polygon points="203.1 299.9 135.7 473 3.7 473" class="st3"/></svg>