<svg xmlns="http://www.w3.org/2000/svg" xmlns:xlink="http://www.w3.org/1999/xlink" id="Layer_1" x="0" y="0" version="1.1" viewBox="0 0 500 500" xml:space="preserve" style="enable-background:new 0 0 500 500"><linearGradient id="SVGID_1_" x1="95.669" x2="328.648" y1="119.669" y2="119.669" gradientUnits="userSpaceOnUse"><stop offset="0" style="stop-color:#3e3e3e"/><stop offset="1" style="stop-color:#7c7c7c"/></linearGradient><circle style="fill:url(#SVGID_1_)" cx="212.159" cy="119.669" r="116.489"/><path d="M133.725,34.789c-4.017,17.516-7.645,34.442-6.379,52.137c0.86,12.014,4.568,22.915,11.014,32.962	c10.671,16.633,26.607,26.267,44.768,32.283c42.49,14.077,84.775,28.578,125.809,46.653c26.833,11.819,49.111,28.938,66.295,52.473	c15.34,21.01,24.537,44.734,27.809,70.553c5.288,41.721-4.628,79.901-30.229,113.01c-32.788,42.403-76.698,63.037-130.536,61.048	c-37.962-1.402-70.941-15.928-98.466-41.609c-26.01-24.268-41.687-54.59-46.911-89.998c-0.805-5.458-1.503-10.997-1.509-16.499	c-0.079-78.078-0.674-156.164,0.314-234.23c0.381-30.153,14.147-55.731,35.559-76.98C131.977,35.882,132.9,35.385,133.725,34.789z"/></svg>