<svg xmlns="http://www.w3.org/2000/svg" xmlns:xlink="http://www.w3.org/1999/xlink" id="Layer_1" x="0" y="0" enable-background="new 0 0 390 85.1" version="1.1" viewBox="0 0 390 85.1" xml:space="preserve"><switch><g><g><defs><rect id="SVGID_3_" width="390" height="85.1"/></defs><clipPath id="SVGID_2_"><use overflow="visible" xlink:href="#SVGID_3_"/></clipPath><path fill="#F9423A" d="M85.1,42.6C85.1,27.5,77,13.4,64,5.8l0,0l-0.2-0.1c-6.3-3.6-14.1-3.6-20.3,0 c-6,3.4-9.8,9.7-10.1,16.6L65.7,41c7.4,4.3,12,12.3,12,20.8c0,1.9-0.2,3.9-0.7,5.7C82.2,60.3,85.1,51.5,85.1,42.6" clip-path="url(#SVGID_2_)"/><path fill="#F9423A" d="M74,61.8c0-6.9-3.6-13.3-9.3-17.1L32.4,63.4c-3.6,2.1-7.8,3.2-12,3.2 c-4.2,0-8.4-1.1-12-3.2c-1.7-1-3.3-2.2-4.7-3.6C10.4,75,25.5,85.1,42.6,85.1c7.4,0,14.7-1.9,21.1-5.6l0,0l0.2-0.1 C70.1,75.8,74,69,74,61.8" clip-path="url(#SVGID_2_)"/><path fill="#F9423A" d="M0,42.6c0,7.3,3.9,14,10.2,17.6c6,3.4,13.3,3.6,19.4,0.5V23.3 c0-8.6,4.6-16.5,12-20.8c1.7-1,3.5-1.8,5.4-2.3C45.5,0.1,44,0,42.6,0C19.1,0,0,19.1,0,42.6" clip-path="url(#SVGID_2_)"/><path fill="#FFF" d="M134.6,42.9c-3.3,0-6.1-1.1-8.4-3.2c-2.2-2.1-3.4-5-3.4-8.8 c0-3.5,1-6.4,3.1-8.7c2.1-2.3,4.9-3.5,8.6-3.5c3.7,0,6.8,1.5,9.2,4.5l-1.5,1.2c-2.1-2.6-4.6-3.9-7.7-3.9c-3,0-5.4,1-7.1,2.9 c-1.7,1.9-2.6,4.4-2.6,7.5c0,3.1,0.9,5.5,2.8,7.3c1.8,1.8,4.2,2.7,7,2.7c3.1,0,5.6-1.3,7.7-3.8l1.5,1.2 C141.4,41.4,138.3,42.9,134.6,42.9" clip-path="url(#SVGID_2_)"/><path fill="#FFF" d="M165.7,42.9c-3.5,0-6.3-1.2-8.5-3.5c-2.2-2.3-3.3-5.2-3.3-8.6 c0-3.4,1.1-6.3,3.3-8.6c2.2-2.3,5-3.5,8.5-3.5c3.4,0,6.2,1.1,8.4,3.4c2.2,2.2,3.4,5.1,3.4,8.7c0,3.6-1.1,6.5-3.4,8.7 C171.9,41.8,169.1,42.9,165.7,42.9 M165.7,41c2.8,0,5.1-1,7-2.9c1.9-1.9,2.8-4.4,2.8-7.4c0-3-0.9-5.4-2.8-7.3 c-1.9-1.9-4.2-2.9-7-2.9c-2.9,0-5.2,1-7.1,3c-1.8,2-2.8,4.4-2.8,7.2c0,2.9,0.9,5.3,2.8,7.3C160.5,40,162.8,41,165.7,41" clip-path="url(#SVGID_2_)"/><polygon fill="#FFF" points="206.4 18.9 208.3 18.9 208.3 42.7 206.4 42.7 191.4 22.2 191.3 22.2 191.3 42.7 189.4 42.7 189.4 18.9 191.2 18.9 206.3 39.5 206.4 39.5" clip-path="url(#SVGID_2_)"/><path fill="#FFF" d="M231.9,42.9c-3.3,0-6.1-1.1-8.4-3.2c-2.2-2.1-3.4-5-3.4-8.8 c0-3.5,1-6.4,3.1-8.7c2.1-2.3,4.9-3.5,8.6-3.5c3.7,0,6.8,1.5,9.2,4.5l-1.5,1.2c-2.1-2.6-4.6-3.9-7.7-3.9c-3,0-5.4,1-7.1,2.9 c-1.7,1.9-2.6,4.4-2.6,7.5c0,3.1,0.9,5.5,2.8,7.3c1.8,1.8,4.2,2.7,7,2.7c3.1,0,5.6-1.3,7.7-3.8l1.5,1.2 C238.7,41.4,235.6,42.9,231.9,42.9" clip-path="url(#SVGID_2_)"/><polygon fill="#FFF" points="252.2 42.7 252.2 18.9 266.4 18.9 266.4 20.7 254 20.7 254 29.9 264.3 29.9 264.3 31.7 254 31.7 254 40.9 267.1 40.9 267.1 42.7" clip-path="url(#SVGID_2_)"/><polygon fill="#FFF" points="295.5 18.9 297.4 18.9 297.4 42.7 295.5 42.7 280.5 22.2 280.4 22.2 280.4 42.7 278.5 42.7 278.5 18.9 280.4 18.9 295.4 39.5 295.5 39.5" clip-path="url(#SVGID_2_)"/><path fill="#FFF" d="M317,42.9c-3.3,0-6.1-1.2-8.3-3.7l1.2-1.4c0.9,1.1,1.9,1.9,3.2,2.4 c1.3,0.6,2.5,0.8,3.9,0.8c1.7,0,3-0.4,4.1-1.2c1.1-0.8,1.6-1.8,1.6-3.1c0-0.7-0.1-1.4-0.4-1.9c-0.3-0.5-0.7-1-1.2-1.4 c-0.5-0.4-1.1-0.7-1.7-0.9c-0.6-0.2-1.3-0.5-2.1-0.9c-0.1,0-0.2-0.1-0.2-0.1c-0.1,0-0.1-0.1-0.2-0.1c-0.1,0-0.1-0.1-0.2-0.1 c-0.7-0.3-1.2-0.5-1.5-0.6c-0.2-0.1-0.7-0.3-1.4-0.6c-0.7-0.3-1.1-0.5-1.4-0.7c-0.3-0.2-0.6-0.4-1.1-0.8c-0.5-0.4-0.8-0.7-1-1.1 c-0.2-0.3-0.4-0.8-0.5-1.2c-0.2-0.5-0.3-1-0.3-1.6c0-1.7,0.7-3.1,2-4.3c1.4-1.2,3-1.7,5-1.7c2.6,0,5,0.9,7.2,2.7l-1.2,1.5 c-1.9-1.6-3.9-2.3-6-2.3c-1.4,0-2.5,0.4-3.5,1.1c-1,0.7-1.5,1.7-1.5,3c0,0.3,0,0.6,0.1,0.8c0.1,0.3,0.1,0.5,0.2,0.7 c0.1,0.2,0.2,0.4,0.4,0.6c0.2,0.2,0.3,0.4,0.4,0.5c0.1,0.1,0.3,0.3,0.6,0.5c0.3,0.2,0.5,0.3,0.6,0.4c0.1,0.1,0.4,0.2,0.8,0.4 c0.4,0.2,0.7,0.3,0.8,0.3c0.1,0.1,0.4,0.2,0.9,0.4c0.5,0.2,0.8,0.3,0.9,0.3c2.4,1,3.9,1.7,4.6,2.1c1.8,1.2,2.7,2.8,2.7,4.9 c0,1.9-0.7,3.5-2.2,4.6C321.1,42.3,319.2,42.9,317,42.9" clip-path="url(#SVGID_2_)"/><path fill="#FFF" d="M345,42.9c-2.7,0-4.8-0.9-6.5-2.6c-1.6-1.7-2.5-4.1-2.5-7.1V18.9h1.9V33 c0,2.5,0.6,4.4,1.9,5.9c1.3,1.5,3,2.2,5.2,2.2c2.1,0,3.9-0.7,5.2-2.1c1.3-1.4,2-3.4,2-5.9V18.9h1.9v14.2c0,3-0.8,5.4-2.5,7.1 C349.9,42,347.7,42.9,345,42.9" clip-path="url(#SVGID_2_)"/><polygon fill="#FFF" points="387.7 18.9 389.6 18.9 389.6 42.7 387.7 42.7 387.7 22.7 387.6 22.6 378.7 37.7 377.5 37.8 368.5 22.6 368.4 22.6 368.4 42.7 366.6 42.7 366.6 18.9 368.5 18.9 378.1 35.3 378.1 35.3" clip-path="url(#SVGID_2_)"/><path fill="#FFF" d="M128.2,61.1h4v3.8c-1,0.8-2.2,1.2-3.7,1.2c-1.4,0-2.6-0.4-3.5-1.3 c-0.9-0.9-1.4-2.1-1.4-3.5c0-1.4,0.4-2.6,1.3-3.5c0.9-0.9,2-1.4,3.5-1.4c1.5,0,2.7,0.5,3.7,1.5l-0.8,0.7 c-0.8-0.7-1.7-1.1-2.8-1.1c-1,0-1.9,0.3-2.5,1c-0.7,0.7-1,1.6-1,2.8c0,1.1,0.3,2,1,2.7c0.7,0.7,1.5,1.1,2.6,1.1 c1,0,1.9-0.2,2.6-0.7v-2.1h-2.8V61.1z" clip-path="url(#SVGID_2_)"/><polygon fill="#FFF" points="137.1 66 137.1 56.4 138.2 56.4 138.2 65 143 65 143 66" clip-path="url(#SVGID_2_)"/><path fill="#FFF" d="M151.4,66.1c-1.4,0-2.6-0.5-3.5-1.4c-0.9-0.9-1.3-2.1-1.3-3.5 c0-1.4,0.4-2.6,1.3-3.5c0.9-0.9,2.1-1.4,3.5-1.4c1.4,0,2.5,0.5,3.4,1.4c0.9,0.9,1.4,2.1,1.4,3.5c0,1.4-0.5,2.6-1.4,3.5 C153.9,65.7,152.8,66.1,151.4,66.1 M151.4,65c1,0,1.9-0.4,2.5-1.1c0.7-0.7,1-1.6,1-2.7c0-1.1-0.3-2-1-2.7 c-0.7-0.7-1.5-1.1-2.5-1.1c-1.1,0-1.9,0.4-2.6,1.1c-0.7,0.7-1,1.6-1,2.7c0,1.1,0.3,2,1,2.7C149.5,64.6,150.4,65,151.4,65" clip-path="url(#SVGID_2_)"/><path fill="#FFF" d="M165.7,61c0.6,0.1,1.1,0.4,1.4,0.8c0.4,0.4,0.6,1,0.6,1.6 c0,0.8-0.3,1.4-0.8,1.9c-0.5,0.5-1.3,0.7-2.4,0.7H161v-9.6h3.1c1,0,1.7,0.2,2.3,0.6c0.5,0.4,0.8,1,0.8,1.8c0,0.5-0.1,0.9-0.4,1.3 C166.6,60.5,166.2,60.8,165.7,61L165.7,61z M162.1,57.5v3.1h2c0.5,0,1-0.1,1.3-0.4c0.4-0.3,0.6-0.6,0.6-1.2c0-1-0.7-1.5-2.1-1.5 H162.1z M164.1,65c0.7,0,1.3-0.1,1.7-0.4c0.4-0.3,0.6-0.7,0.6-1.2c0-0.5-0.2-1-0.6-1.3c-0.4-0.3-0.9-0.5-1.7-0.5h-2.1V65H164.1z" clip-path="url(#SVGID_2_)"/><path fill="#FFF" d="M178.7,66l-0.9-2.3h-4.3l-0.9,2.3h-1.2l3.6-9.6h1.2l3.7,9.6H178.7z M173.9,62.7h3.5l-1.8-4.8l0,0L173.9,62.7z" clip-path="url(#SVGID_2_)"/><polygon fill="#FFF" points="184.2 66 184.2 56.4 185.4 56.4 185.4 65 190.2 65 190.2 66" clip-path="url(#SVGID_2_)"/><path fill="#FFF" d="M205.4,66.1c-1.4,0-2.5-0.4-3.4-1.3c-0.9-0.9-1.4-2-1.4-3.6 c0-1.4,0.4-2.6,1.3-3.5c0.9-0.9,2-1.4,3.5-1.4c1.5,0,2.8,0.6,3.8,1.8l-0.9,0.7c-0.8-1-1.7-1.5-2.9-1.5c-1.1,0-2,0.4-2.6,1.1 c-0.6,0.7-1,1.6-1,2.8s0.3,2,1,2.7c0.7,0.7,1.5,1,2.6,1c1.1,0,2.1-0.5,2.9-1.4l0.9,0.7C208.2,65.5,206.9,66.1,205.4,66.1" clip-path="url(#SVGID_2_)"/><path fill="#FFF" d="M218,66.1c-1.4,0-2.6-0.5-3.5-1.4c-0.9-0.9-1.3-2.1-1.3-3.5 c0-1.4,0.4-2.6,1.3-3.5c0.9-0.9,2.1-1.4,3.5-1.4c1.4,0,2.5,0.5,3.4,1.4c0.9,0.9,1.4,2.1,1.4,3.5c0,1.4-0.5,2.6-1.4,3.5 C220.5,65.7,219.4,66.1,218,66.1 M218,65c1,0,1.9-0.4,2.5-1.1c0.7-0.7,1-1.6,1-2.7c0-1.1-0.3-2-1-2.7c-0.7-0.7-1.5-1.1-2.5-1.1 c-1.1,0-1.9,0.4-2.6,1.1c-0.7,0.7-1,1.6-1,2.7c0,1.1,0.3,2,1,2.7C216.1,64.6,216.9,65,218,65" clip-path="url(#SVGID_2_)"/><path fill="#FFF" d="M227.5,66v-9.6h3.4c1.1,0,1.9,0.3,2.4,0.8c0.5,0.5,0.8,1.3,0.8,2.2 c0,1-0.3,1.7-0.9,2.2c-0.6,0.5-1.4,0.7-2.5,0.7h-2V66H227.5z M228.7,61.3h1.9c0.8,0,1.3-0.2,1.7-0.5c0.4-0.3,0.6-0.8,0.6-1.4 c0-0.6-0.2-1.1-0.5-1.4c-0.4-0.3-0.9-0.5-1.5-0.5h-2.1V61.3z" clip-path="url(#SVGID_2_)"/><polygon fill="#FFF" points="243.8 56.4 245.1 56.4 241.9 61.7 241.9 66 240.7 66 240.7 61.7 237.4 56.4 238.8 56.4 241.3 60.6 241.3 60.6" clip-path="url(#SVGID_2_)"/><path fill="#FFF" d="M256.2,66h-1.4l-2.4-3.7h-1.8V66h-1.2v-9.6h3.4c1.1,0,1.9,0.3,2.4,0.8 c0.5,0.5,0.8,1.3,0.8,2.2c0,0.8-0.2,1.4-0.6,1.9c-0.4,0.5-1,0.8-1.7,0.9v0L256.2,66z M250.5,57.5v3.8h1.9c0.8,0,1.3-0.2,1.7-0.5 c0.4-0.3,0.6-0.8,0.6-1.4c0-0.6-0.2-1.1-0.6-1.4c-0.4-0.3-0.9-0.5-1.6-0.5H250.5z" clip-path="url(#SVGID_2_)"/><rect width="1.2" height="9.6" x="260.8" y="56.4" fill="#FFF" clip-path="url(#SVGID_2_)"/><path fill="#FFF" d="M271.4,61.1h4v3.8c-1,0.8-2.2,1.2-3.7,1.2c-1.4,0-2.6-0.4-3.5-1.3 c-0.9-0.9-1.4-2.1-1.4-3.5c0-1.4,0.4-2.6,1.3-3.5c0.9-0.9,2-1.4,3.5-1.4c1.5,0,2.7,0.5,3.7,1.5l-0.8,0.7 c-0.8-0.7-1.7-1.1-2.8-1.1c-1,0-1.9,0.3-2.5,1c-0.7,0.7-1,1.6-1,2.8c0,1.1,0.3,2,1,2.7c0.7,0.7,1.5,1.1,2.6,1.1 c1,0,1.9-0.2,2.6-0.7v-2.1h-2.8V61.1z" clip-path="url(#SVGID_2_)"/><polygon fill="#FFF" points="280.3 66 280.3 56.4 281.5 56.4 281.5 60.9 286.5 60.9 286.5 56.4 287.7 56.4 287.7 66 286.5 66 286.5 62 281.5 62 281.5 66" clip-path="url(#SVGID_2_)"/><polygon fill="#FFF" points="295 66 295 57.5 292.1 57.5 292.1 56.4 299 56.4 299 57.5 296.1 57.5 296.1 66" clip-path="url(#SVGID_2_)"/><path fill="#FFF" d="M316.7,66h-1.4l-2.4-3.7H311V66h-1.2v-9.6h3.4c1.1,0,1.9,0.3,2.4,0.8 c0.5,0.5,0.8,1.3,0.8,2.2c0,0.8-0.2,1.4-0.6,1.9c-0.4,0.5-1,0.8-1.7,0.9v0L316.7,66z M311,57.5v3.8h1.9c0.8,0,1.3-0.2,1.7-0.5 c0.4-0.3,0.6-0.8,0.6-1.4c0-0.6-0.2-1.1-0.6-1.4c-0.4-0.3-0.9-0.5-1.6-0.5H311z" clip-path="url(#SVGID_2_)"/><polygon fill="#FFF" points="321.3 66 321.3 56.4 327.2 56.4 327.2 57.5 322.5 57.5 322.5 60.7 326.4 60.7 326.4 61.8 322.5 61.8 322.5 65 327.5 65 327.5 66" clip-path="url(#SVGID_2_)"/><path fill="#FFF" d="M335.9,61.1h4v3.8c-1,0.8-2.2,1.2-3.7,1.2c-1.4,0-2.6-0.4-3.5-1.3 c-0.9-0.9-1.4-2.1-1.4-3.5c0-1.4,0.4-2.6,1.3-3.5c0.9-0.9,2-1.4,3.5-1.4c1.5,0,2.7,0.5,3.7,1.5l-0.8,0.7 c-0.8-0.7-1.7-1.1-2.8-1.1c-1,0-1.9,0.3-2.5,1c-0.7,0.7-1,1.6-1,2.8c0,1.1,0.3,2,1,2.7c0.7,0.7,1.5,1.1,2.6,1.1 c1,0,1.9-0.2,2.6-0.7v-2.1h-2.8V61.1z" clip-path="url(#SVGID_2_)"/><rect width="1.2" height="9.6" x="344.9" y="56.4" fill="#FFF" clip-path="url(#SVGID_2_)"/><path fill="#FFF" d="M354.1,66.1c-1.3,0-2.5-0.5-3.4-1.5l0.8-0.9c0.3,0.4,0.7,0.7,1.2,0.9 s1,0.3,1.5,0.3c0.6,0,1.1-0.1,1.4-0.4s0.5-0.6,0.5-1.1c0-0.3,0-0.5-0.1-0.7c-0.1-0.2-0.2-0.3-0.4-0.5c-0.2-0.1-0.4-0.2-0.6-0.3 c-0.2-0.1-0.5-0.2-0.8-0.3c-0.1,0-0.1,0-0.1-0.1c-0.4-0.1-0.6-0.3-0.9-0.3c-0.2-0.1-0.5-0.2-0.8-0.4c-0.3-0.2-0.5-0.3-0.7-0.5 c-0.2-0.2-0.3-0.4-0.4-0.7c-0.1-0.3-0.2-0.6-0.2-0.9c0-0.7,0.3-1.3,0.9-1.8c0.6-0.5,1.3-0.7,2.1-0.7c1.1,0,2.1,0.4,3.1,1.1 l-0.7,0.9c-0.8-0.6-1.5-0.9-2.3-0.9c-0.5,0-0.9,0.1-1.2,0.4c-0.3,0.2-0.5,0.6-0.5,1c0,0.2,0,0.3,0.1,0.5c0.1,0.1,0.2,0.3,0.2,0.4 c0.1,0.1,0.2,0.2,0.5,0.3c0.2,0.1,0.4,0.2,0.5,0.3c0.1,0.1,0.4,0.1,0.7,0.3c1,0.4,1.6,0.7,2,0.9c0.7,0.5,1,1.1,1,2 c0,0.9-0.3,1.5-0.9,2C355.8,65.9,355,66.1,354.1,66.1" clip-path="url(#SVGID_2_)"/><polygon fill="#FFF" points="363.9 66 363.9 57.5 361 57.5 361 56.4 367.9 56.4 367.9 57.5 365 57.5 365 66" clip-path="url(#SVGID_2_)"/><polygon fill="#FFF" points="372.3 66 372.3 56.4 378.2 56.4 378.2 57.5 373.5 57.5 373.5 60.7 377.4 60.7 377.4 61.8 373.5 61.8 373.5 65 378.5 65 378.5 66" clip-path="url(#SVGID_2_)"/><path fill="#FFF" d="M390,66h-1.4l-2.4-3.7h-1.8V66h-1.2v-9.6h3.4c1.1,0,1.9,0.3,2.4,0.8 c0.5,0.5,0.8,1.3,0.8,2.2c0,0.8-0.2,1.4-0.6,1.9c-0.4,0.5-1,0.8-1.7,0.9v0L390,66z M384.3,57.5v3.8h1.9c0.8,0,1.3-0.2,1.7-0.5 c0.4-0.3,0.6-0.8,0.6-1.4c0-0.6-0.2-1.1-0.6-1.4c-0.4-0.3-0.9-0.5-1.6-0.5H384.3z" clip-path="url(#SVGID_2_)"/></g></g></switch></svg>