<svg xmlns="http://www.w3.org/2000/svg" xmlns:xlink="http://www.w3.org/1999/xlink" id="Layer_2" x="0" y="0" version="1.1" viewBox="0 0 500 500" xml:space="preserve" style="enable-background:new 0 0 500 500"><linearGradient id="SVGID_1_" x1="237.092" x2="262.87" y1="148.285" y2="433.199" gradientUnits="userSpaceOnUse"><stop offset="0" style="stop-color:#ffd431"/><stop offset="1" style="stop-color:#edbb24"/></linearGradient><polygon style="fill:url(#SVGID_1_)" points="168.941 147.58 256.45 147.58 319.538 306.996 278.836 431.137"/><path style="fill:#ffd431" d="M319.538,306.996l64.445-181.802c0,0,14.246-40.702,43.415-53.591	c29.17-12.889,67.837-12.211,67.837-12.211L367.702,431.137h-88.866L319.538,306.996z"/><path style="fill:#00bde7" d="M129.596,147.58l27.135,70.55c0,0-75.299,3.392-75.299,74.62s68.515,73.942,81.404,73.942	c12.889,0,46.129-14.246,46.129-14.246l27.813,67.837c0,0-31.883,18.994-77.673,18.994S4.098,417.57,4.098,293.429	S115.35,150.293,129.596,147.58z"/></svg>