<svg xmlns="http://www.w3.org/2000/svg" xmlns:svg="http://www.w3.org/2000/svg" id="svg2" width="1800.001" height="269.35" version="1.1" viewBox="0 0 1800.001 269.35" xml:space="preserve"><metadata id="metadata8"/><defs id="defs6"><clipPath id="clipPath136" clipPathUnits="userSpaceOnUse"><path id="path138" d="m 0,1080 1920,0 L 1920,0 0,0 0,1080 Z"/></clipPath></defs><g id="g10" transform="matrix(1.25,0,0,-1.25,-299.99962,809.67412)"><g id="g12" transform="translate(656.2866,601.2632)"><path id="path14" d="m 0,0 0,45.477 -58.359,0 0,-64.39 8.404,-0.472 L 0,0 Z" style="fill:#f2116d;fill-opacity:1;fill-rule:nonzero;stroke:none"/></g><g id="g16" transform="translate(727.5146,646.7397)"><path id="path18" d="M 0,0 0,-17.836 45.962,0 0,0 Z" style="fill:#f2116d;fill-opacity:1;fill-rule:nonzero;stroke:none"/></g><g id="g20" transform="translate(388.7001,646.74)"><path id="path22" d="M 0,0 0.04,-0.056 0.04,0 0,0 Z" style="fill:#f2116d;fill-opacity:1;fill-rule:nonzero;stroke:none"/></g><g id="g24" transform="translate(403.3999,626.6523)"><path id="path26" d="m 0,0 22.532,-30.79 38.82,0 0,-6.031 58.358,-3.278 0,9.309 61.053,0 0,50.877 L 0,20.087 0,0 Z" style="fill:#f2116d;fill-opacity:1;fill-rule:nonzero;stroke:none"/></g><g id="g28" transform="translate(365.0937,485.1318)"><path id="path30" d="m 0,0 -66.735,0 0,33.517 40.826,0 -36.552,47.286 -4.274,0 0,5.529 -58.188,75.276 -0.171,0 0,-212.486 10.449,0 L 19.91,-25.757 0,0 Z" style="fill:#ec6589;fill-opacity:1;fill-rule:nonzero;stroke:none"/></g><g id="g32" transform="translate(948.6787,595.8628)"><path id="path34" d="m 0,0 0,30.392 -25.96,20.485 -52.387,0 L -82.525,0 0,0 Z" style="fill:#ffec94;fill-opacity:1;fill-rule:nonzero;stroke:none"/></g><g id="g36" transform="translate(951.3721,434.2539)"><path id="path38" d="m 0,0 0,50.878 -93.074,0 0,15.081 L -98.491,0 0,0 Z" style="fill:#ffec94;fill-opacity:1;fill-rule:nonzero;stroke:none"/></g><g id="g40" transform="translate(935.5103,518.6484)"><path id="path42" d="m 0,0 0,47.287 -71.814,0 L -75.698,0 0,0 Z" style="fill:#ffec94;fill-opacity:1;fill-rule:nonzero;stroke:none"/></g><g id="g44" transform="translate(597.9277,582.3501)"><path id="path46" d="M 0,0 0,-5.124 8.404,-0.472 0,0 Z" style="fill:#ec6589;fill-opacity:1;fill-rule:nonzero;stroke:none"/></g><g id="g48" transform="translate(391.4336,462.9336)"><path id="path50" d="M 0,0 0,15.858 -6.43,-3.559 0,0 Z" style="fill:#ec6589;fill-opacity:1;fill-rule:nonzero;stroke:none"/></g><g id="g52" transform="translate(464.7515,503.5146)"><path id="path54" d="m 0,0 58.359,32.301 0,50.738 L 0,86.317 0,0 Z" style="fill:#ec6589;fill-opacity:1;fill-rule:nonzero;stroke:none"/></g><g id="g56" transform="translate(727.5146,434.2539)"><path id="path58" d="m 0,0 58.359,0 0,149.497 L 0,81.706 0,0 Z" style="fill:#f1cb3f;fill-opacity:1;fill-rule:nonzero;stroke:none"/></g><g id="g60" transform="translate(858.2983,500.2129)"><path id="path62" d="m 0,0 0,18.436 1.514,0 3.883,47.286 -5.397,0 0,29.928 7.855,0 4.179,50.877 -30.234,0 -40.16,-46.651 0,-165.835 52.943,0 L 0,0 Z" style="fill:#f1cb3f;fill-opacity:1;fill-rule:nonzero;stroke:none"/></g><g id="g64" transform="translate(381.3755,434.2539)"><path id="path66" d="m 0,0 10.058,0 0,22.424 -6.43,2.697 L 0,0 Z" style="fill:#f2116d;fill-opacity:1;fill-rule:nonzero;stroke:none"/></g><g id="g68" transform="translate(799.9385,646.7397)"><path id="path70" d="M 0,0 0,-46.65 40.16,0 0,0 Z" style="fill:#e05a44;fill-opacity:1;fill-rule:nonzero;stroke:none"/></g><g id="g72" transform="translate(656.2866,491.959)"><path id="path74" d="m 0,0 0,25.493 71.228,0 0,-1.492 58.359,67.791 0,62.989 -12.397,0 -45.962,-17.836 0,-60.575 L 0,76.37 0,109.304 -49.955,89.919 0,0 Z" style="fill:#e05a44;fill-opacity:1;fill-rule:nonzero;stroke:none"/></g><g id="g76" transform="translate(403.3999,595.8628)"><path id="path78" d="M 0,0 11.616,0 0,3.41 0,0 Z" style="fill:#774a5b;fill-opacity:1;fill-rule:nonzero;stroke:none"/></g><g id="g80" transform="translate(298.3589,595.8628)"><path id="path82" d="m 0,0 90.381,0 0,7.714 -147.024,43.163 -1.545,0 L 0,-24.399 0,0 Z" style="fill:#774a5b;fill-opacity:1;fill-rule:nonzero;stroke:none"/></g><g id="g84" transform="translate(375.5723,518.6484)"><path id="path86" d="m 0,0 0,47.287 -72.939,0 L -36.387,0 0,0 Z" style="fill:#774a5b;fill-opacity:1;fill-rule:nonzero;stroke:none"/></g><g id="g88" transform="translate(391.4336,478.792)"><path id="path90" d="m 0,0 0,6.34 -26.34,0 L -6.43,-19.417 0,0 Z" style="fill:#774a5b;fill-opacity:1;fill-rule:nonzero;stroke:none"/></g><g id="g92" transform="translate(464.7515,434.2539)"><path id="path94" d="m 0,0 58.359,0 0,101.562 L 0,69.261 0,0 Z" style="fill:#e57b37;fill-opacity:1;fill-rule:nonzero;stroke:none"/></g><g id="g96" transform="translate(391.4336,456.6777)"><path id="path98" d="M 0,0 0,6.256 -6.43,2.697 0,0 Z" style="fill:#e57b37;fill-opacity:1;fill-rule:nonzero;stroke:none"/></g><g id="g100" transform="translate(656.2866,491.959)"><path id="path102" d="m 0,0 -49.955,89.919 -8.404,-4.652 0,-142.972 58.359,0 L 0,0 Z" style="fill:#e57b37;fill-opacity:1;fill-rule:nonzero;stroke:none"/></g><g id="g104" transform="translate(385.0034,459.375)"><path id="path106" d="m 0,0 -134.554,-25.121 130.926,0 L 0,0 Z" style="fill:#314d5d;fill-opacity:1;fill-rule:nonzero;stroke:none"/></g><g id="g108" transform="translate(948.6787,646.7397)"><path id="path110" d="M 0,0 -25.96,0 0,-20.485 0,0 Z" style="fill:#9dc971;fill-opacity:1;fill-rule:nonzero;stroke:none"/></g><g id="g112" transform="translate(403.3999,599.3545)"><path id="path114" d="m 0,0 11.847,-3.492 10.047,0 L 0,26.722 0,0 Z" style="fill:#e57b37;fill-opacity:1;fill-rule:nonzero;stroke:none"/></g><g id="g116" transform="translate(388.7402,646.3066)"><path id="path118" d="m 0,0 -0.314,0.433 -145.798,0 L 0,-42.631 0,0 Z" style="fill:#e57b37;fill-opacity:1;fill-rule:nonzero;stroke:none"/></g><g id="g120" transform="translate(403.3999,599.2729)"><path id="path122" d="m 0,0 11.616,-3.41 0.231,0 L 0,0.082 0,0 Z" style="fill:#e57b37;fill-opacity:1;fill-rule:nonzero;stroke:none"/></g><g id="g124" transform="translate(388.7402,603.6753)"><path id="path126" d="m 0,0 -146.112,43.064 -0.912,0 L 0,-0.099 0,0 Z" style="fill:#e57b37;fill-opacity:1;fill-rule:nonzero;stroke:none"/></g><g id="g128" transform="translate(1440.4717,484.9346)"><path id="path130" d="m 0,0 -29.819,0 0,67.333 -27.042,61.063 -31.318,-20.018 0,-159.256 9.586,0 L 4.198,-9.482 0,0 Z" style="fill:#314d5d;fill-opacity:1;fill-rule:nonzero;stroke:none"/></g><g id="g132"><g id="g134" clip-path="url(#clipPath136)"><g id="g140" transform="translate(1318.332,470.915)"><path id="path142" d="m 0,0 c 6.646,8.44 12.047,17.841 16.155,28.233 5.089,12.87 7.632,26.288 7.632,40.254 0,13.565 -2.394,26.832 -7.182,39.803 -0.3,0.814 -0.632,1.605 -0.949,2.407 L -26.529,83.731 0,0 Z" style="fill:#314d5d;fill-opacity:1;fill-rule:nonzero;stroke:none"/></g><g id="g144" transform="translate(1291.8027,554.6465)"><path id="path146" d="m 0,0 -9.369,-5.989 c 0.259,-2.654 0.43,-5.332 0.43,-8.057 0,-6.987 -0.851,-13.871 -2.544,-20.651 -1.698,-6.786 -4.242,-12.823 -7.632,-18.108 -3.396,-5.288 -7.781,-9.575 -13.169,-12.867 -5.289,-3.233 -11.55,-4.87 -18.76,-4.929 l -1.546,-51.771 c 0.187,-0.001 0.368,-0.015 0.555,-0.015 14.964,0 28.729,2.995 41.299,8.981 12.57,5.985 23.344,13.916 32.323,23.793 1.726,1.899 3.359,3.871 4.942,5.882 L 0,0 Z" style="fill:#617fe1;fill-opacity:1;fill-rule:nonzero;stroke:none"/></g><g id="g148" transform="translate(1507.0195,463.5752)"><path id="path150" d="M 0,0 -62.35,11.877 -145.141,-29.519 0,-29.519 0,0 Z" style="fill:#dd4563;fill-opacity:1;fill-rule:nonzero;stroke:none"/></g><g id="g152" transform="translate(1525.2734,434.0566)"><path id="path154" d="M 0,0 136.692,0 0,26.041 0,0 Z" style="fill:#dd4563;fill-opacity:1;fill-rule:nonzero;stroke:none"/></g><g id="g156" transform="translate(1410.6523,637.8896)"><path id="path158" d="m 0,0 0,8.653 -55.464,0 28.422,-33.212 L 0,0 Z" style="fill:#617fe1;fill-opacity:1;fill-rule:nonzero;stroke:none"/></g><g id="g160" transform="translate(1583.6328,552.9849)"><path id="path162" d="M 0,0 0,20.657 -22.751,13.074 0,0 Z" style="fill:#314d5d;fill-opacity:1;fill-rule:nonzero;stroke:none"/></g><g id="g164" transform="translate(1258.9199,591.3267)"><path id="path166" d="m 0,0 c 5.389,-3.096 9.826,-7.183 13.319,-12.271 3.489,-5.087 6.134,-10.975 7.931,-17.657 1.114,-4.148 1.841,-8.403 2.264,-12.741 l 9.369,5.989 -28.73,90.677 c -5.571,1.272 -11.366,2.031 -17.377,2.294 L -14.794,4.447 C -9.282,3.964 -4.344,2.493 0,0" style="fill:#97adff;fill-opacity:1;fill-rule:nonzero;stroke:none"/></g><g id="g168" transform="translate(1333.9883,581.6123)"><path id="path170" d="m 0,0 c -4.729,11.99 -11.233,22.772 -19.552,32.31 -8.88,10.174 -19.556,18.353 -32.023,24.54 -6.121,3.034 -12.571,5.315 -19.34,6.861 L -42.186,-26.966 0,0 Z" style="fill:#408fb2;fill-opacity:1;fill-rule:nonzero;stroke:none"/></g><g id="g172" transform="translate(1355.1885,646.543)"><path id="path174" d="m 0,0 -2.896,0 0,-53.23 31.318,20.018 L 0,0 Z" style="fill:#408fb2;fill-opacity:1;fill-rule:nonzero;stroke:none"/></g><g id="g176" transform="translate(1525.2734,646.543)"><path id="path178" d="m 0,0 0,-70.989 35.608,-9.495 22.751,7.583 L 58.359,0 0,0 Z" style="fill:#7c4d52;fill-opacity:1;fill-rule:nonzero;stroke:none"/></g><g id="g180" transform="translate(1410.6523,606.1196)"><path id="path182" d="M 0,0 0,31.77 -27.042,7.211 0,0 Z" style="fill:#7c4d52;fill-opacity:1;fill-rule:nonzero;stroke:none"/></g><g id="g184" transform="translate(1410.6523,552.2681)"><path id="path186" d="M 0,0 0,53.852 -27.042,61.063 0,0 Z" style="fill:#cc6a92;fill-opacity:1;fill-rule:nonzero;stroke:none"/></g><g id="g188" transform="translate(1456.832,484.9346)"><path id="path190" d="M 0,0 -16.36,0 -12.162,-9.482 0,0 Z" style="fill:#cc6a92;fill-opacity:1;fill-rule:nonzero;stroke:none"/></g><g id="g192" transform="translate(1525.2734,575.5542)"><path id="path194" d="M 0,0 0,-37.258 35.608,-9.496 0,0 Z" style="fill:#cc6a92;fill-opacity:1;fill-rule:nonzero;stroke:none"/></g><g id="g196" transform="translate(962.9385,453.2988)"><path id="path198" d="m 0,0 57.727,-19.242 0.632,0 0,40.234 L 0,1.539 0,0 Z" style="fill:#408fb2;fill-opacity:1;fill-rule:nonzero;stroke:none"/></g><g id="g200" transform="translate(1083.5479,434.0566)"><path id="path202" d="M 0,0 65.839,0 23.627,68.86 -31.304,50.55 0,0 Z" style="fill:#408fb2;fill-opacity:1;fill-rule:nonzero;stroke:none"/></g><g id="g204" transform="translate(1221.5117,488.8242)"><path id="path206" d="m 0,0 c -5.388,3.188 -9.876,7.379 -13.468,12.569 -3.592,5.186 -6.237,11.12 -7.93,17.808 -1.151,4.528 -1.878,9.185 -2.248,13.945 L -80.101,25.504 c 1.115,-4.659 2.514,-9.273 4.235,-13.833 4.886,-12.972 11.769,-24.493 20.649,-34.566 8.875,-10.076 19.552,-18.209 32.024,-24.391 9.355,-4.642 19.471,-7.541 30.347,-8.7 L 1.58,-0.86 C 1.048,-0.584 0.516,-0.306 0,0" style="fill:#408fb2;fill-opacity:1;fill-rule:nonzero;stroke:none"/></g><g id="g208" transform="translate(1240.0674,595.9653)"><path id="path210" d="m 0,0 c 1.21,0 2.386,-0.061 3.545,-0.148 l 1.41,51.818 c -1.347,0.05 -2.69,0.104 -4.059,0.104 -1.671,0 -3.323,-0.049 -4.963,-0.123 L -13.109,-2.054 C -9.184,-0.694 -4.819,0 0,0" style="fill:#318777;fill-opacity:1;fill-rule:nonzero;stroke:none"/></g><g id="g212" transform="translate(1240.3662,484.0342)"><path id="path214" d="m 0,0 c -6.495,0 -12.248,1.319 -17.274,3.93 l 5.574,-55.126 c 3.422,-0.365 6.924,-0.543 10.495,-0.563 L 0.204,0.006 C 0.135,0.006 0.069,0 0,0" style="fill:#318777;fill-opacity:1;fill-rule:nonzero;stroke:none"/></g><g id="g216" transform="translate(962.9385,434.0566)"><path id="path218" d="M 0,0 57.727,0 0,19.242 0,0 Z" style="fill:#314d5d;fill-opacity:1;fill-rule:nonzero;stroke:none"/></g><g id="g220" transform="translate(1021.2979,595.666)"><path id="path222" d="m 0,0 35.315,0 c 3.59,0 7.182,-1.945 10.773,-5.836 3.592,-3.891 5.387,-9.53 5.387,-16.909 0,-7.183 -1.548,-12.771 -4.639,-16.76 -3.096,-3.993 -6.434,-5.986 -10.025,-5.986 L 0,-45.491 0,0 Z m -58.359,-133.16 0,-7.668 58.359,19.453 0,25.008 21.847,0 9.099,-14.693 54.931,18.311 -5.671,9.252 c 9.577,6.78 17.058,15.51 22.446,26.184 5.387,10.672 8.079,22.195 8.079,34.568 0,7.859 -1.375,15.678 -4.127,23.461 l -80.117,50.161 -34.497,0 -50.349,-184.037 z" style="fill:#40b49d;fill-opacity:1;fill-rule:nonzero;stroke:none"/></g><g id="g224" transform="translate(1197.5684,540.0015)"><path id="path226" d="m 0,0 c 0,4.058 0.321,8.061 0.895,12.02 l -47.083,29.662 -4.082,2.555 c -0.459,-1.073 -0.924,-2.142 -1.354,-3.237 -5.089,-12.971 -7.632,-26.439 -7.632,-40.401 0,-8.926 1.044,-17.682 3.099,-26.272 L 0.297,-6.855 C 0.121,-4.592 0,-2.314 0,0" style="fill:#40b49d;fill-opacity:1;fill-rule:nonzero;stroke:none"/></g><g id="g228" transform="translate(962.9385,646.543)"><path id="path230" d="M 0,0 0,-184.037 50.35,0 0,0 Z" style="fill:#70ce49;fill-opacity:1;fill-rule:nonzero;stroke:none"/></g><g id="g232" transform="translate(1198.4893,552.189)"><path id="path234" d="m 0,0 c 0.41,2.793 0.928,5.568 1.624,8.313 1.693,6.681 4.288,12.668 7.781,17.957 3.49,5.283 7.879,9.524 13.167,12.718 1.823,1.099 3.778,1.995 5.849,2.717 l 8.681,53.712 C 24.212,94.791 12.283,91.894 1.324,86.723 -11.147,80.835 -21.973,72.956 -31.147,63.08 -39.549,54.041 -46.213,43.69 -51.186,32.063 L -47.109,29.495 0,0 Z" style="fill:#314d5d;fill-opacity:1;fill-rule:nonzero;stroke:none"/></g><g id="g236" transform="translate(1126.6436,599.7061)"><path id="path238" d="m 0,0 c -3.592,8.875 -8.53,16.759 -14.815,23.643 -6.285,6.883 -13.819,12.466 -22.595,16.759 -8.782,4.288 -18.36,6.435 -28.732,6.435 l -12.073,0 79.428,-50.04 C 0.834,-2.135 0.432,-1.067 0,0" style="fill:#314d5d;fill-opacity:1;fill-rule:nonzero;stroke:none"/></g><g id="g240" transform="translate(1127.8564,596.5029)"><path id="path242" d="m 0,0 -79.428,50.04 -0.643,0 L 0.046,-0.121 C 0.032,-0.08 0.015,-0.04 0,0" style="fill:#314d5d;fill-opacity:1;fill-rule:nonzero;stroke:none"/></g><g id="g244" transform="translate(1147.3037,584.2515)"><path id="path246" d="M 0,0 C -0.002,-0.004 -0.003,-0.008 -0.005,-0.013 L 4.076,-2.568 0,0 Z" style="fill:#314d5d;fill-opacity:1;fill-rule:nonzero;stroke:none"/></g><g id="g248" transform="translate(1525.2734,537.9766)"><path id="path250" d="m 0,0 0,-77.495 138.581,-26.425 16.146,0 0,50.878 -96.368,0 0,68.029 L 35.911,27.872 0,0 Z" style="fill:#617fe1;fill-opacity:1;fill-rule:nonzero;stroke:none"/></g><g id="g252" transform="translate(1507.0195,463.9619)"><path id="path254" d="m 0,0 0,20.973 -50.089,0 L -61.903,11.804 0,0 Z" style="fill:#617fe1;fill-opacity:1;fill-rule:nonzero;stroke:none"/></g></g></g></g></svg>