<svg xmlns="http://www.w3.org/2000/svg" xmlns:xlink="http://www.w3.org/1999/xlink" id="dtr" x="0" y="0" version="1.1" viewBox="0 0 500 500" xml:space="preserve" style="enable-background:new 0 0 500 500"><style type="text/css">.st0{fill:#51ded2}</style><path d="M297.3,450.3c0,26.2-21,47.2-47.2,47.2l0,0c-26,0-47.2-21-47.2-47.2V50.8c0-26.2,21.3-47.2,47.2-47.2l0,0	c26.2,0,47.2,21.3,47.2,47.2V450.3z" class="st0"/><path d="M439,74.7c-26,0-47.2,21-47.2,47.2v156c0,26.2,21,47.2,47.2,47.2s47.2-21.3,47.2-47.2v-156	C486.3,95.7,465.2,74.7,439,74.7z" class="st0"/><path d="M108.3,450.3c0,26.2-21.3,47.2-47.2,47.2l0,0c-26,0-47.2-21-47.2-47.2v-67c0-26,21.3-47.2,47.2-47.2l0,0	c26,0,47.2,21.3,47.2,47.2V450.3z" class="st0"/></svg>