<svg xmlns="http://www.w3.org/2000/svg" xmlns:xlink="http://www.w3.org/1999/xlink" id="ekt" x="0" y="0" version="1.1" viewBox="0 0 500 500" xml:space="preserve" style="enable-background:new 0 0 500 500"><style type="text/css">.st0{fill:url(#SVGID_1_)}.st1{fill:#00b4f8}.st2{fill:url(#SVGID_2_)}.st3{fill:#fdd754}.st4{fill:#15a63e}.st5{fill:url(#SVGID_3_)}.st6{fill:url(#SVGID_4_)}</style><linearGradient id="SVGID_1_" x1="124.988" x2="370.42" y1="102.616" y2="102.616" gradientUnits="userSpaceOnUse"><stop offset="0" style="stop-color:#198fc0"/><stop offset=".497" style="stop-color:#27cdff"/></linearGradient><polygon points="125 41 370.4 41 247.2 164.2" class="st0"/><polygon points="370.4 41 247.2 164.2 247.2 41" class="st1"/><linearGradient id="SVGID_2_" x1="127.412" x2="372.845" y1="398.211" y2="398.211" gradientUnits="userSpaceOnUse"><stop offset="0" style="stop-color:#f5d22d"/><stop offset=".501" style="stop-color:#fff58d"/></linearGradient><polygon points="127.4 459.8 372.8 459.8 249.7 336.6" class="st2"/><polygon points="372.8 459.8 249.7 336.6 249.7 459.8" class="st3"/><polygon points="414.4 110.6 275.6 251.3 413.2 388.9 495.3 251.8" class="st4"/><linearGradient id="SVGID_3_" x1="385.464" x2="385.464" y1="251.811" y2="110.585" gradientUnits="userSpaceOnUse"><stop offset="0" style="stop-color:#29b24e"/><stop offset="1" style="stop-color:#45c665"/></linearGradient><polygon points="275.6 251.3 414.4 110.6 495.3 251.8" class="st5"/><polygon points="84.5 110.6 223.3 251.3 85.8 388.9 3.7 251.8" class="st4"/><linearGradient id="SVGID_4_" x1="338.018" x2="338.018" y1="251.811" y2="110.585" gradientTransform="matrix(-1 0 0 1 451.5319 0)" gradientUnits="userSpaceOnUse"><stop offset="0" style="stop-color:#29b24e"/><stop offset="1" style="stop-color:#45c665"/></linearGradient><polygon points="223.3 251.3 84.5 110.6 3.7 251.8" class="st6"/></svg>