<svg xmlns="http://www.w3.org/2000/svg" xmlns:xlink="http://www.w3.org/1999/xlink" id="logo-svg" width="829.08" height="199.8" x="0" style="enable-background:new 0 0 829.08 199.8" y="0" version="1.1" viewBox="0 0 829.08 199.8" xml:space="preserve"><style type="text/css">#logo-svg .st1{fill:#f5c430}#logo-svg .st2{fill:#fff}</style><g><path d="M199.8,99.91c0,55.17-44.73,99.9-99.9,99.9C44.73,199.8,0,155.08,0,99.91C0,44.73,44.73,0,99.9,0 C155.07,0,199.8,44.73,199.8,99.91z" class="st1"/><path d="M138.63,94.7L80.6,64.2c-1.82-0.95-4.01-0.89-5.77,0.18c-1.77,1.06-2.84,2.97-2.84,5.03v61 c0,2.06,1.07,3.96,2.84,5.02c0.93,0.57,1.98,0.85,3.03,0.85c0.94,0,1.88-0.22,2.74-0.67l58.03-30.49c1.93-1.03,3.14-3.02,3.14-5.21 C141.77,97.72,140.55,95.71,138.63,94.7z" class="st2"/></g></svg>