<svg xmlns="http://www.w3.org/2000/svg" xmlns:xlink="http://www.w3.org/1999/xlink" id="Layer_1" x="0" y="0" version="1.1" viewBox="0 0 500 500" xml:space="preserve" style="enable-background:new 0 0 500 500"><g id="AcwP8e_1_"><g id="XMLID_1_"><linearGradient id="XMLID_3_" x1="147.561" x2="147.561" y1="5.113" y2="496.398" gradientUnits="userSpaceOnUse"><stop offset="0" style="stop-color:#fdd900"/><stop offset="1" style="stop-color:#f36e1f"/></linearGradient><path id="XMLID_26_" d="M256.565,250.377c0,70.668,0.047,141.337-0.025,212.005 c-0.026,25.684-8.941,34.708-34.275,34.745c-51.112,0.076-102.224,0.096-153.336-0.029c-25.736-0.063-37.526-15.474-25.902-38.041 c18.639-36.186,21.507-73.935,20.902-113.568c-1.247-81.76-0.391-163.554-0.208-245.333c0.13-58.139,38.929-96.994,96.715-97.184 c20.445-0.067,40.89-0.068,61.335-0.017c26.274,0.066,34.535,8.102,34.564,34.083c0.08,71.113,0.028,142.226,0.028,213.338 C256.43,250.377,256.497,250.377,256.565,250.377z" style="fill:url(#XMLID_3_)"/><linearGradient id="XMLID_4_" x1="379.052" x2="379.052" y1="238.709" y2="491.363" gradientUnits="userSpaceOnUse"><stop offset="0" style="stop-color:#38e8dc"/><stop offset="1" style="stop-color:#48a9f2"/></linearGradient><path id="XMLID_25_" d="M293.219,364.685c0-32.9-0.143-65.801,0.051-98.7 c0.124-21.068,7.141-28.119,28.103-28.192c39.124-0.137,78.25-0.186,117.372,0.157c19.858,0.174,32.174,14.445,23.409,31.552 c-18.624,36.35-12.965,74.503-13.859,112.34c-0.304,12.886,0.24,25.794-0.136,38.677c-1.269,43.571-34.489,75.957-78.181,76.342 c-16.004,0.141-32.024,0.385-48.012-0.148c-19.03-0.634-28.596-10.404-28.743-29.327c-0.265-34.232-0.075-68.467-0.075-102.701 C293.172,364.685,293.195,364.685,293.219,364.685z" style="fill:url(#XMLID_4_)"/><linearGradient id="XMLID_5_" x1="370.784" x2="370.784" y1="4.248" y2="207.712" gradientUnits="userSpaceOnUse"><stop offset="0" style="stop-color:#d27dff"/><stop offset="1" style="stop-color:#9453ff"/></linearGradient><path id="XMLID_24_" d="M293.076,104.654c0-23.987-0.221-47.976,0.068-71.96 c0.242-20.101,9.574-29.398,29.471-29.688c16.876-0.246,33.764-0.32,50.637,0.016c40.692,0.809,73.989,33.023,74.961,73.55 c0.82,34.184,0.42,68.404,0.189,102.605c-0.112,16.504-7.737,26.947-24.426,27.71c-34.991,1.6-70.126,1.87-105.129,0.636 c-17.708-0.624-25.575-11.461-25.815-29.577c-0.324-24.427-0.08-48.861-0.08-73.292 C292.993,104.654,293.034,104.654,293.076,104.654z" style="fill:url(#XMLID_5_)"/></g></g></svg>