<svg xmlns="http://www.w3.org/2000/svg" xmlns:xlink="http://www.w3.org/1999/xlink" width="2000" height="2000" version="1.1" viewBox="0 0 2000 2000"><title>Shape</title><desc>Created with Sketch.</desc><g id="Page-1" fill="none" fill-rule="evenodd" stroke="none" stroke-width="1"><g id="hgt" fill="#000" fill-rule="nonzero"><path id="Shape" d="M0,1416 L584,1416 L412,1004 L0,1416 Z M584,588 L0,588 L412,1000 L584,588 Z M588,2000 L1000,1588 L588,1416 L588,2000 Z M588,4 L588,588 L1000,416 L588,4 Z M1412,1416 L2000,1416 L1588,1004 L1412,1416 Z M1000,416 L1412,588 L1412,0 L1000,416 Z M2000,588 L1412,588 L1588,1000 L2000,588 Z M1412,2000 L1412,1416 L1000,1584 L1412,2000 Z M1228,1004 C1228,880 1128,780 1004,780 C880,780 780,880 780,1004 C780,1128 880,1228 1004,1228 C1128,1228 1228,1128 1228,1004 Z"/></g></g></svg>