<svg xmlns="http://www.w3.org/2000/svg" xmlns:xlink="http://www.w3.org/1999/xlink" id="leo" x="0" y="0" version="1.1" viewBox="0 0 500 500" xml:space="preserve" style="enable-background:new 0 0 500 500"><style type="text/css">.st0{fill:#11021e}.st1{fill:url(#SVGID_1_)}.st2{fill:url(#SVGID_2_)}.st3{fill:url(#SVGID_3_)}.st4{fill:url(#SVGID_4_)}.st5{fill:url(#SVGID_5_)}.st6{fill:url(#SVGID_6_)}.st7{fill:url(#SVGID_7_)}.st8{fill:url(#SVGID_8_)}</style><circle cx="249.7" cy="250.5" r="247.1" class="st0"/><linearGradient id="SVGID_1_" x1="267.776" x2="267.776" y1="244.565" y2="98.352" gradientUnits="userSpaceOnUse"><stop offset="0" style="stop-color:#f2792b"/><stop offset="1" style="stop-color:#faec32"/></linearGradient><polygon points="214.1 116.9 247.5 98.4 321.5 141.9 321.5 224.2 271.8 244.6 271.8 209.7 308 209.7 308 149.5 247.5 114.3 227.9 124.5" class="st1"/><linearGradient id="SVGID_2_" x1="172.704" x2="172.704" y1="339.256" y2="210.1" gradientUnits="userSpaceOnUse"><stop offset="0" style="stop-color:#f26e2a"/><stop offset=".736" style="stop-color:#faeb32"/></linearGradient><polygon points="159.9 328.4 132.6 309.1 132.6 248.2 180.1 224.5 225.9 244.1 225.9 210.1 177.2 210.1 119.5 240.5 119.5 315.9 151.2 339.3" class="st2"/><linearGradient id="SVGID_3_" x1="282.435" x2="282.435" y1="373.779" y2="253.861" gradientUnits="userSpaceOnUse"><stop offset="0" style="stop-color:#f26e2a"/><stop offset=".795" style="stop-color:#faeb32"/></linearGradient><polygon points="252.8 297.1 252.8 328.8 289.8 357 352.5 312.8 352.5 283.5 366.4 283.5 366.4 319.7 290.1 373.8 239.2 335.1 239.2 297.1 198.4 253.9 294.6 253.9" class="st3"/><linearGradient id="SVGID_4_" x1="222.999" x2="222.999" y1="392.952" y2="284.887" gradientUnits="userSpaceOnUse"><stop offset="0" style="stop-color:#f26e2a"/><stop offset=".795" style="stop-color:#faeb32"/></linearGradient><polygon points="186.9 285.2 186.9 346.9 246.5 377.6 267.1 369.6 273 381.8 246.2 393 173 355.3 173 284.9" class="st4"/><linearGradient id="SVGID_5_" x1="345.705" x2="345.705" y1="295.345" y2="153.813" gradientUnits="userSpaceOnUse"><stop offset="0" style="stop-color:#f26e2a"/><stop offset=".618" style="stop-color:#faeb32"/></linearGradient><polygon points="310.7 283.5 365.4 249 365.4 185.9 339.3 164.3 348.7 153.8 380.7 179.6 380.7 256.7 318.3 295.3" class="st5"/><linearGradient id="SVGID_6_" x1="186.57" x2="186.57" y1="215.167" y2="122.091" gradientUnits="userSpaceOnUse"><stop offset="0" style="stop-color:#f26e2a"/><stop offset=".795" style="stop-color:#faeb32"/></linearGradient><polygon points="132.9 214.8 132.9 176.1 196 138.1 246.2 167.1 253.5 155.2 195.3 122.1 119.6 168.1 119.6 215.2" class="st6"/><linearGradient id="SVGID_7_" x1="219.196" x2="201.494" y1="206.226" y2="236.888" gradientUnits="userSpaceOnUse"><stop offset="0" style="stop-color:#f26e2a"/><stop offset="1" style="stop-color:#faeb32"/></linearGradient><polygon points="225.9 244.1 180.1 224.5 225.9 210.1" class="st7"/><linearGradient id="SVGID_8_" x1="270.406" x2="305.417" y1="243.204" y2="208.193" gradientUnits="userSpaceOnUse"><stop offset="0" style="stop-color:#f26e2a"/><stop offset=".709" style="stop-color:#faeb32"/></linearGradient><polygon points="271.8 244.6 271.8 209.7 321.5 224.2" class="st8"/></svg>