<svg xmlns="http://www.w3.org/2000/svg" xmlns:xlink="http://www.w3.org/1999/xlink" id="Layer_1" x="0" y="0" version="1.1" viewBox="0 0 500 500" xml:space="preserve" style="enable-background:new 0 0 500 500"><linearGradient id="SVGID_1_" x1="138.653" x2="138.653" y1="415.865" y2="71.637" gradientUnits="userSpaceOnUse"><stop offset="0" style="stop-color:#c23657"/><stop offset="1" style="stop-color:#f7655b"/></linearGradient><path style="fill:url(#SVGID_1_)" d="M274.305,256.088L177.77,88.982c0,0-7.169-15.054-22.223-15.054s-134.415,0-134.415,0	s-27.6,10.395-14.696,33.335s179.112,307.952,179.112,307.952L274.305,256.088z"/><linearGradient id="SVGID_2_" x1="184.957" x2="497.878" y1="427.628" y2="173.047" gradientUnits="userSpaceOnUse"><stop offset="0" style="stop-color:#de7053"/><stop offset="1" style="stop-color:#e5204e"/></linearGradient><path style="fill:url(#SVGID_2_)" d="M460.292,163.898H351.814c-18.491,0-27.788,13.165-38.92,31.983L187.202,391.99	c-7.336,11.445-3.913,26.973,7.916,33.671c5.889,3.334,9.901,5.083,20.681,5.083h123.366c18.491,0,28.063-15.14,39.46-32.898	l111.114-193.454c3.553-5.855,9.406-15.947,6.832-22.293C491.573,169.775,474.353,163.898,460.292,163.898z"/></svg>