<svg xmlns="http://www.w3.org/2000/svg" xmlns:xlink="http://www.w3.org/1999/xlink" id="Layer_2" x="0" y="0" version="1.1" viewBox="0 0 500 500" xml:space="preserve" style="enable-background:new 0 0 500 500"><path style="fill:#00a7e7" d="M353.336,104.736c-40.529,0-77.141,16.749-103.311,43.694c25.187,25.934,40.703,61.312,40.703,100.32	c0-34.578,28.031-62.608,62.608-62.608c34.578,0,62.608,28.031,62.608,62.608s-28.031,62.608-62.608,62.608	c-34.578,0-62.608-28.031-62.608-62.608c0,39.007-15.515,74.386-40.703,100.32c26.17,26.945,62.782,43.694,103.311,43.694	c79.537,0,144.014-64.477,144.014-144.014S432.873,104.736,353.336,104.736z"/><path style="fill:#db1157" d="M146.714,311.359c-34.578,0-62.608-28.031-62.608-62.608s28.031-62.608,62.608-62.608	c34.578,0,62.608,28.031,62.608,62.608c0-39.007,15.515-74.386,40.703-100.32c-26.17-26.945-62.782-43.694-103.311-43.694	C67.177,104.736,2.7,169.213,2.7,248.75s64.477,144.014,144.014,144.014c40.529,0,77.141-16.749,103.311-43.694	c-25.187-25.934-40.703-61.312-40.703-100.32C209.322,283.328,181.292,311.359,146.714,311.359z"/><path style="fill:#1f3364" d="M250.025,148.43c-25.187,25.934-40.703,61.312-40.703,100.32s15.515,74.386,40.703,100.32	c25.187-25.934,40.703-61.312,40.703-100.32S275.213,174.364,250.025,148.43z"/></svg>