<svg xmlns="http://www.w3.org/2000/svg" xmlns:xlink="http://www.w3.org/1999/xlink" id="Layer_1" x="0" y="0" version="1.1" viewBox="2000 0 500 500" xml:space="preserve" style="enable-background:new 2000 0 500 500"><linearGradient id="SVGID_1_" x1="2049.48" x2="2049.48" y1="1408.729" y2="1082.732" gradientTransform="matrix(1.25 0 0 -1.25 -500 1815)" gradientUnits="userSpaceOnUse"><stop offset="0" style="stop-color:#16ed8c"/><stop offset="1" style="stop-color:#0767fc"/></linearGradient><path style="fill:url(#SVGID_1_)" d="M2003.971,345.829c0,63.918,51.814,115.756,115.756,115.756V54.088h-115.756V345.829z"/><linearGradient id="SVGID_2_" x1="2350.501" x2="2350.501" y1="1408.729" y2="1082.732" gradientTransform="matrix(1.25 0 0 -1.25 -500 1815)" gradientUnits="userSpaceOnUse"><stop offset="0" style="stop-color:#16ed8c"/><stop offset="1" style="stop-color:#0767fc"/></linearGradient><path style="fill:url(#SVGID_2_)" d="M2496.004,345.829c0,63.943-51.838,115.756-115.757,115.756V54.088h115.757V345.829z"/><linearGradient id="SVGID_3_" x1="2003.177" x2="2246.372" y1="1290.546" y2="1290.546" gradientTransform="matrix(1.25 0 0 -1.25 -500 1815)" gradientUnits="userSpaceOnUse"><stop offset="0" style="stop-color:#0b46aa"/><stop offset="1" style="stop-color:#1455e1"/></linearGradient><path style="fill:url(#SVGID_3_)" d="M2162.094,96.577c-31.959-55.381-102.766-74.35-158.123-42.391l149.364,258.724	c20.716,31.369,56.267,52.06,96.665,52.06c18.034,0.025,35.822-4.182,51.937-12.277l6.028-3.469L2162.094,96.577z"/><linearGradient id="SVGID_4_" x1="2153.628" x2="2396.823" y1="1290.744" y2="1290.744" gradientTransform="matrix(1.25 0 0 -1.25 -500 1815)" gradientUnits="userSpaceOnUse"><stop offset="0" style="stop-color:#0b46aa"/><stop offset="1" style="stop-color:#1455e1"/></linearGradient><path style="fill:url(#SVGID_4_)" d="M2337.906,96.307c31.959-55.356,102.766-74.325,158.123-42.366l-149.364,258.724	c-20.716,31.369-56.267,52.06-96.665,52.06c-18.034,0.025-35.822-4.182-51.937-12.277l-6.028-3.469L2337.906,96.307L2337.906,96.307	z"/></svg>