<svg xmlns="http://www.w3.org/2000/svg" xmlns:xlink="http://www.w3.org/1999/xlink" id="nct" x="0" y="0" version="1.1" viewBox="0 0 500 500" xml:space="preserve" style="enable-background:new 0 0 500 500"><style type="text/css">.st0{fill:#6f51a0}</style><path d="M303.2,397.2H62.4c-9.8,0-17.8-7.9-17.8-17.8s7.9-17.8,17.8-17.8h240.8c86.2,0,156.3-70.1,156.3-156.3	S389.4,49.1,303.2,49.1H207c-9.8,0-17.8-7.9-17.8-17.8s7.9-17.8,17.8-17.8h96.2c105.8,0,191.8,86.1,191.8,191.8	S409,397.2,303.2,397.2z" class="st0"/><path d="M305.5,309.3H170.3c-9.8,0-17.8-7.9-17.8-17.8s7.9-17.8,17.8-17.8h135.1c37.7,0,68.4-30.7,68.4-68.4	s-30.7-68.4-68.4-68.4H56.9c-9.8,0-17.8-7.9-17.8-17.8s7.9-17.8,17.8-17.8h248.6c57.3,0,104,46.6,104,104	C409.4,262.7,362.8,309.3,305.5,309.3z" class="st0"/><path d="M179.1,222.6h-52.2c-9.8,0-17.8-7.9-17.8-17.8s7.9-17.8,17.8-17.8h52.2c9.8,0,17.8,7.9,17.8,17.8	S188.9,222.6,179.1,222.6z" class="st0"/><path d="M135.8,482H22.3c-9.8,0-17.8-7.9-17.8-17.8s7.9-17.8,17.8-17.8h113.5c9.8,0,17.8,7.9,17.8,17.8	S145.6,482,135.8,482z" class="st0"/></svg>