<svg xmlns="http://www.w3.org/2000/svg" xmlns:xlink="http://www.w3.org/1999/xlink" id="Layer_1" x="0" y="0" version="1.1" viewBox="0 0 100 100" xml:space="preserve" style="enable-background:new 0 0 100 100"><style type="text/css">.st0{fill:#00a9b4}.st1{fill:#fff}</style><g><path d="M50,100c27.6,0,50-22.4,50-50S77.6,0,50,0S0,22.4,0,50S22.4,100,50,100" class="st0"/><path d="M61.9,55.3c3-1.2,5-3.2,5.9-6.1c0.9-2.9,1.4-6.6,1.4-11c0-4.1-0.3-7.4-0.9-9.9c-0.6-2.6-2-4.6-4.1-6.2 c-2.1-1.5-5.2-2.3-9.5-2.3H35.9v5.9h17.2c2.9,0,4.9,0.4,6.3,1.3c1.3,0.9,2.2,2.2,2.5,3.8c0.4,1.7,0.6,4.1,0.6,7.3 c0,3.2-0.2,5.6-0.6,7.3c-0.4,1.7-1.3,3-2.6,3.9c-1.4,0.9-3.5,1.3-6.3,1.3H35.9v30.6h6.7V56.5h11.5h1.3l7.7,24.8h7.1L61.9,55.3z" class="st1"/></g><rect width="19.5" height="5.8" x="35.9" y="35.3" class="st1"/></svg>