<svg xmlns="http://www.w3.org/2000/svg" xmlns:xlink="http://www.w3.org/1999/xlink" id="Layer_1" x="0" y="0" version="1.1" viewBox="0 0 200 330" xml:space="preserve" style="enable-background:new 0 0 200 330"><style type="text/css">.st0{fill:#808284}.st1{fill:#303232}.st2{fill:url(#SVGID_1_)}.st3{fill:url(#SVGID_2_)}.st4{fill:url(#SVGID_3_)}.st5{fill:url(#SVGID_4_)}.st6{fill:url(#SVGID_5_)}.st7{fill:url(#SVGID_6_)}</style><g><polygon points="100 245.4 100 326.8 0 187.1" class="st0"/><polygon points="100 245.4 100 326.8 200 187.1" class="st1"/><linearGradient id="SVGID_1_" x1="72.15" x2="99.994" y1="-554.35" y2="-554.35" gradientTransform="matrix(1 0 0 -1 0 -520)" gradientUnits="userSpaceOnUse"><stop offset="0" style="stop-color:#eea831"/><stop offset="1" style="stop-color:#ffc929"/></linearGradient><polygon points="100 65.5 100 3.2 72.1 49.4" class="st2"/><linearGradient id="SVGID_2_" x1="100" x2="163.9" y1="-624.65" y2="-624.65" gradientTransform="matrix(1 0 0 -1 0 -520)" gradientUnits="userSpaceOnUse"><stop offset="0" style="stop-color:#b32629"/><stop offset=".583" style="stop-color:#8c1e21"/><stop offset="1" style="stop-color:#7a1a1d"/></linearGradient><polygon points="100 84 100 146.4 100 146.4 163.9 109.1 136.1 62.9" class="st3"/><linearGradient id="SVGID_3_" x1="100" x2="127.85" y1="-554.35" y2="-554.35" gradientTransform="matrix(1 0 0 -1 0 -520)" gradientUnits="userSpaceOnUse"><stop offset="0" style="stop-color:#e8a333"/><stop offset=".612" style="stop-color:#c68931"/><stop offset="1" style="stop-color:#ab762f"/></linearGradient><polygon points="100 65.5 127.9 49.4 100 3.2" class="st4"/><linearGradient id="SVGID_4_" x1="100" x2="200" y1="-695" y2="-695" gradientTransform="matrix(1 0 0 -1 0 -520)" gradientUnits="userSpaceOnUse"><stop offset="0" style="stop-color:#b32629"/><stop offset=".583" style="stop-color:#8c1e21"/><stop offset="1" style="stop-color:#7a1a1d"/></linearGradient><polygon points="172.1 122.8 100 164.9 100 164.9 100 227.2 200 168.9" class="st5"/><linearGradient id="SVGID_5_" x1="0" x2="100" y1="-695" y2="-695" gradientTransform="matrix(1 0 0 -1 0 -520)" gradientUnits="userSpaceOnUse"><stop offset="0" style="stop-color:#ae2524"/><stop offset=".563" style="stop-color:#d01d19"/><stop offset="1" style="stop-color:#ed1913"/></linearGradient><polygon points="0 168.9 100 227.2 100 164.9 27.9 122.8" class="st6"/><linearGradient id="SVGID_6_" x1="36.1" x2="100" y1="-624.65" y2="-624.65" gradientTransform="matrix(1 0 0 -1 0 -520)" gradientUnits="userSpaceOnUse"><stop offset="0" style="stop-color:#ae2524"/><stop offset=".563" style="stop-color:#d01d19"/><stop offset="1" style="stop-color:#ed1913"/></linearGradient><polygon points="63.9 62.9 36.1 109.1 100 146.4 100 84" class="st7"/></g></svg>