<svg xmlns="http://www.w3.org/2000/svg" xmlns:xlink="http://www.w3.org/1999/xlink" id="Layer_1" width="350" height="127.5" x="0" y="0" enable-background="new 326 97.5 350 127.5" version="1.1" viewBox="326 97.5 350 127.5" xml:space="preserve"><g><linearGradient id="SVGID_1_" x1="550.635" x2="639.522" y1="39.796" y2="39.796" gradientTransform="matrix(1 0 0 -1 -244 199)" gradientUnits="userSpaceOnUse"><stop offset="0" style="stop-color:#3b007f"/><stop offset="1" style="stop-color:#aa003d"/></linearGradient><circle cx="371.856" cy="159.204" r="44.317" fill="url(#SVGID_1_)"/><g><circle cx="366.725" cy="170.875" r="3.324" fill="#FFF"/><circle cx="376.535" cy="170.875" r="3.324" fill="#FFF"/><circle cx="386.344" cy="170.875" r="3.324" fill="#FFF"/><circle cx="396.154" cy="170.875" r="3.324" fill="#FFF"/><circle cx="405.964" cy="170.875" r="3.324" fill="#FFF"/><circle cx="415.774" cy="170.875" r="3.324" fill="#FFF"/><circle cx="425.585" cy="170.875" r="3.324" fill="#FFF"/><circle cx="435.395" cy="170.875" r="3.324" fill="#FFF"/><circle cx="445.204" cy="170.875" r="3.324" fill="#FFF"/><circle cx="450.669" cy="180.818" r="2.288" fill="#FFF"/><circle cx="440.529" cy="180.818" r="2.288" fill="#FFF"/><circle cx="430.394" cy="180.818" r="2.288" fill="#FFF"/><circle cx="420.257" cy="180.818" r="2.288" fill="#FFF"/><circle cx="410.118" cy="180.818" r="2.288" fill="#FFF"/><circle cx="399.981" cy="180.818" r="2.288" fill="#FFF"/><circle cx="389.844" cy="180.818" r="2.288" fill="#FFF"/><circle cx="379.707" cy="180.818" r="2.288" fill="#FFF"/><circle cx="369.568" cy="180.818" r="2.288" fill="#FFF"/><circle cx="456.048" cy="187.811" r="2.216" fill="#FFF"/><circle cx="445.766" cy="187.811" r="2.216" fill="#FFF"/><circle cx="435.484" cy="187.811" r="2.216" fill="#FFF"/><circle cx="425.205" cy="187.812" r="2.216" fill="#FFF"/><circle cx="414.924" cy="187.812" r="2.216" fill="#FFF"/><circle cx="404.642" cy="187.811" r="2.216" fill="#FFF"/><circle cx="394.362" cy="187.811" r="2.216" fill="#FFF"/><circle cx="384.081" cy="187.811" r="2.216" fill="#FFF"/><circle cx="373.801" cy="187.812" r="2.216" fill="#FFF"/><circle cx="463.214" cy="194.861" r="1.697" fill="#FFF"/><circle cx="452.797" cy="194.862" r="1.697" fill="#FFF"/><circle cx="442.379" cy="194.861" r="1.697" fill="#FFF"/><circle cx="431.961" cy="194.861" r="1.697" fill="#FFF"/><circle cx="421.545" cy="194.861" r="1.697" fill="#FFF"/><circle cx="411.128" cy="194.862" r="1.697" fill="#FFF"/><circle cx="400.71" cy="194.862" r="1.697" fill="#FFF"/><circle cx="390.293" cy="194.862" r="1.697" fill="#FFF"/><circle cx="379.875" cy="194.862" r="1.697" fill="#FFF"/><circle cx="471.563" cy="201.14" r="1.298" fill="#FFF"/><circle cx="461.058" cy="201.14" r="1.298" fill="#FFF"/><circle cx="450.554" cy="201.14" r="1.298" fill="#FFF"/><circle cx="440.051" cy="201.14" r="1.298" fill="#FFF"/><circle cx="429.546" cy="201.14" r="1.298" fill="#FFF"/><circle cx="419.042" cy="201.14" r="1.298" fill="#FFF"/><circle cx="408.539" cy="201.14" r="1.298" fill="#FFF"/><circle cx="398.036" cy="201.14" r="1.298" fill="#FFF"/><circle cx="387.532" cy="201.14" r="1.298" fill="#FFF"/><circle cx="361.946" cy="161.493" r="2.288" fill="#FFF"/><circle cx="372.084" cy="161.493" r="2.288" fill="#FFF"/><circle cx="382.222" cy="161.493" r="2.288" fill="#FFF"/><circle cx="392.359" cy="161.493" r="2.288" fill="#FFF"/><circle cx="402.495" cy="161.493" r="2.288" fill="#FFF"/><circle cx="412.635" cy="161.493" r="2.288" fill="#FFF"/><circle cx="422.771" cy="161.493" r="2.288" fill="#FFF"/><circle cx="432.909" cy="161.493" r="2.288" fill="#FFF"/><circle cx="443.046" cy="161.493" r="2.288" fill="#FFF"/><circle cx="356.568" cy="154.5" r="2.216" fill="#FFF"/><circle cx="366.849" cy="154.5" r="2.216" fill="#FFF"/><circle cx="377.129" cy="154.5" r="2.216" fill="#FFF"/><circle cx="387.41" cy="154.5" r="2.216" fill="#FFF"/><circle cx="397.691" cy="154.5" r="2.216" fill="#FFF"/><circle cx="407.972" cy="154.5" r="2.216" fill="#FFF"/><circle cx="418.254" cy="154.5" r="2.216" fill="#FFF"/><circle cx="428.533" cy="154.5" r="2.216" fill="#FFF"/><circle cx="438.814" cy="154.5" r="2.216" fill="#FFF"/><circle cx="349.4" cy="147.45" r="1.697" fill="#FFF"/><circle cx="359.818" cy="147.449" r="1.697" fill="#FFF"/><circle cx="370.236" cy="147.45" r="1.697" fill="#FFF"/><circle cx="380.653" cy="147.45" r="1.697" fill="#FFF"/><circle cx="391.07" cy="147.449" r="1.697" fill="#FFF"/><circle cx="401.488" cy="147.449" r="1.697" fill="#FFF"/><circle cx="411.905" cy="147.449" r="1.697" fill="#FFF"/><circle cx="422.321" cy="147.449" r="1.697" fill="#FFF"/><circle cx="432.738" cy="147.449" r="1.697" fill="#FFF"/><circle cx="341.054" cy="141.171" r="1.299" fill="#FFF"/><circle cx="351.557" cy="141.171" r="1.298" fill="#FFF"/><circle cx="362.06" cy="141.171" r="1.298" fill="#FFF"/><circle cx="372.564" cy="141.172" r="1.299" fill="#FFF"/><circle cx="383.068" cy="141.171" r="1.298" fill="#FFF"/><circle cx="393.571" cy="141.171" r="1.298" fill="#FFF"/><circle cx="404.074" cy="141.171" r="1.298" fill="#FFF"/><circle cx="414.58" cy="141.171" r="1.298" fill="#FFF"/><circle cx="425.085" cy="141.171" r="1.298" fill="#FFF"/></g></g><g><path fill="#FFF" d="M482.014,148.613v3.825h-8.189v25.526h-4.781v-25.526h-8.148v-3.825H482.014z"/><path fill="#FFF" d="M504.754,157.26c1.607,1.719,2.412,4.172,2.412,7.358v13.345h-4.741v-12.846 c0-2.051-0.525-3.637-1.578-4.76c-1.055-1.122-2.495-1.684-4.324-1.684c-1.885,0-3.395,0.603-4.53,1.808 c-1.137,1.206-1.707,2.973-1.707,5.301v12.181h-4.737v-30.765h4.737v12.889c0.61-1.719,1.637-3.049,3.076-3.992 c1.443-0.942,3.105-1.414,4.99-1.414C501.013,154.683,503.146,155.542,504.754,157.26z"/><path fill="#FFF" d="M529.158,156.18c1.772,0.942,3.159,2.3,4.157,4.074c0.998,1.774,1.496,3.853,1.496,6.236 c0,2.412-0.498,4.505-1.496,6.278s-2.385,3.132-4.157,4.074c-1.773,0.942-3.771,1.413-5.987,1.413 c-2.218,0-4.206-0.471-5.966-1.413c-1.762-0.942-3.146-2.308-4.157-4.095c-1.012-1.788-1.518-3.873-1.518-6.257 c0-2.383,0.506-4.461,1.518-6.236c1.012-1.773,2.396-3.131,4.157-4.074c1.76-0.942,3.748-1.414,5.966-1.414 C525.388,154.766,527.385,155.237,529.158,156.18z M519.804,159.713c-1.026,0.555-1.85,1.408-2.474,2.558 c-0.623,1.15-0.935,2.556-0.935,4.219c0,1.691,0.312,3.104,0.935,4.241c0.624,1.137,1.447,1.982,2.474,2.537 c1.025,0.555,2.147,0.831,3.367,0.831s2.342-0.276,3.367-0.831s1.851-1.399,2.475-2.537c0.623-1.136,0.936-2.549,0.936-4.241 c0-1.663-0.313-3.069-0.936-4.219c-0.624-1.15-1.449-2.003-2.475-2.558c-1.025-0.554-2.147-0.831-3.367-0.831 S520.829,159.159,519.804,159.713z"/><path fill="#FFF" d="M547.451,155.993c1.44-0.874,3.103-1.31,4.988-1.31v5.155h-1.414c-2.077,0-3.748,0.506-5.01,1.518 c-1.261,1.011-1.892,2.681-1.892,5.01v11.599h-4.739v-22.907h4.739v4.49C544.9,158.05,546.01,156.866,547.451,155.993z"/><path fill="#FFF" d="M577.092,167.446h-17.628c0.084,2.356,0.734,4.103,1.955,5.239c1.219,1.137,2.729,1.704,4.532,1.704 c1.579,0,2.915-0.402,4.011-1.206c1.095-0.803,1.768-1.871,2.017-3.202h5.072c-0.306,1.608-0.942,3.035-1.912,4.283 c-0.971,1.247-2.232,2.224-3.784,2.931c-1.551,0.706-3.284,1.06-5.196,1.06c-2.217,0-4.179-0.471-5.883-1.413 s-3.042-2.301-4.012-4.074c-0.971-1.773-1.455-3.867-1.455-6.278c0-2.383,0.484-4.461,1.455-6.236 c0.97-1.773,2.308-3.131,4.012-4.074s3.666-1.414,5.883-1.414c2.245,0,4.205,0.464,5.883,1.393 c1.676,0.929,2.965,2.203,3.867,3.825c0.899,1.622,1.35,3.43,1.35,5.425C577.258,166.185,577.201,166.864,577.092,167.446z M571.708,161.521c-0.567-1.011-1.345-1.76-2.328-2.245s-2.058-0.729-3.222-0.729c-1.856,0-3.409,0.569-4.656,1.705 c-1.246,1.137-1.928,2.813-2.038,5.031h13.013C572.533,163.788,572.276,162.534,571.708,161.521z"/><path fill="#FFF" d="M603.906,151.066c2.385,1.829,3.992,4.31,4.823,7.441h-5.03c-0.693-1.773-1.795-3.18-3.306-4.219 c-1.51-1.04-3.36-1.56-5.55-1.56c-1.745,0-3.306,0.431-4.678,1.29c-1.371,0.859-2.451,2.085-3.243,3.679 c-0.789,1.594-1.183,3.458-1.183,5.591c0,2.106,0.394,3.957,1.183,5.55c0.792,1.594,1.872,2.82,3.243,3.68 c1.372,0.859,2.933,1.288,4.678,1.288c2.189,0,4.04-0.52,5.55-1.559c1.511-1.039,2.612-2.432,3.306-4.178h5.03 c-0.831,3.132-2.438,5.606-4.823,7.421c-2.384,1.815-5.377,2.723-8.979,2.723c-2.771,0-5.225-0.629-7.358-1.891 c-2.135-1.261-3.783-3.021-4.948-5.28c-1.163-2.258-1.745-4.844-1.745-7.753c0-2.91,0.582-5.494,1.745-7.754 c1.165-2.258,2.813-4.025,4.948-5.301c2.134-1.274,4.587-1.912,7.358-1.912C598.529,148.322,601.522,149.237,603.906,151.066z"/><path fill="#FFF" d="M629.932,156.18c1.773,0.942,3.158,2.3,4.158,4.074c0.998,1.774,1.496,3.853,1.496,6.236 c0,2.412-0.498,4.505-1.496,6.278c-1,1.773-2.385,3.132-4.158,4.074s-3.77,1.413-5.986,1.413c-2.218,0-4.206-0.471-5.966-1.413 c-1.762-0.942-3.146-2.308-4.158-4.095c-1.011-1.788-1.518-3.873-1.518-6.257c0-2.383,0.507-4.461,1.518-6.236 c1.012-1.773,2.396-3.131,4.158-4.074c1.76-0.942,3.748-1.414,5.966-1.414C626.162,154.766,628.158,155.237,629.932,156.18z M620.577,159.713c-1.024,0.555-1.85,1.408-2.474,2.558c-0.623,1.15-0.935,2.556-0.935,4.219c0,1.691,0.312,3.104,0.935,4.241 c0.624,1.137,1.449,1.982,2.474,2.537c1.025,0.555,2.149,0.831,3.368,0.831s2.342-0.276,3.366-0.831 c1.026-0.555,1.851-1.399,2.475-2.537c0.624-1.136,0.936-2.549,0.936-4.241c0-1.663-0.312-3.069-0.936-4.219 s-1.448-2.003-2.475-2.558c-1.024-0.554-2.147-0.831-3.366-0.831S621.603,159.159,620.577,159.713z"/><path fill="#FFF" d="M640.325,146.409c0.555-0.526,1.289-0.79,2.204-0.79s1.655,0.264,2.224,0.79 c0.569,0.527,0.854,1.192,0.854,1.996c0,0.804-0.284,1.455-0.854,1.954c-0.568,0.499-1.309,0.748-2.224,0.748 s-1.649-0.25-2.204-0.748c-0.555-0.499-0.831-1.15-0.831-1.954C639.494,147.601,639.771,146.937,640.325,146.409z M644.899,155.057 v22.907h-4.739v-22.907H644.899z"/><path fill="#FFF" d="M669.844,157.26c1.607,1.719,2.411,4.172,2.411,7.358v13.345h-4.739v-12.846c0-2.051-0.527-3.637-1.58-4.76 c-1.055-1.122-2.495-1.684-4.323-1.684c-1.886,0-3.396,0.603-4.531,1.808c-1.137,1.206-1.706,2.973-1.706,5.301v12.181h-4.738 v-22.907h4.738v5.031c0.609-1.719,1.636-3.049,3.077-3.992c1.441-0.942,3.104-1.414,4.988-1.414 C666.103,154.683,668.234,155.542,669.844,157.26z"/></g></svg>