<svg xmlns="http://www.w3.org/2000/svg" xmlns:xlink="http://www.w3.org/1999/xlink" id="Слой_1" x="0" y="0" version="1.1" viewBox="0 0 400 400" xml:space="preserve" style="enable-background:new 0 0 400 400"><style type="text/css">.st0{fill:#e5332c}</style><polygon points="288.6 149.5 141.2 64.4 200.7 30 348.1 115.1 348.1 285.2 368.1 285.2 368.1 103.6 368 103.6 200.7 7 101.3 64.5 268.7 161.1 268.7 331.3 200.7 370.5 200.7 200.1 33.4 103.5 33.4 103.5 33.4 103.6 33.3 103.6 33.3 103.7 33.3 285.2 53.2 285.2 53.3 138 180.8 211.6 180.8 381.9 190.2 387.5 200.7 393.5 200.7 393.5 288.6 342.9 288.6 149.5" class="st0"/></svg>