<svg xmlns="http://www.w3.org/2000/svg" xmlns:xlink="http://www.w3.org/1999/xlink" id="viu" x="0" y="0" version="1.1" viewBox="0 0 500 500" xml:space="preserve" style="enable-background:new 0 0 500 500"><style type="text/css">.st0{fill:#fff}.st1{fill:url(#SVGID_1_)}.st2{fill:url(#SVGID_2_)}</style><circle cx="250.6" cy="250.3" r="246.3" class="st0"/><linearGradient id="SVGID_1_" x1="207.08" x2="207.08" y1="133.261" y2="400.902" gradientUnits="userSpaceOnUse"><stop offset="0" style="stop-color:#56ddf7"/><stop offset="1" style="stop-color:#0591d7"/></linearGradient><path d="M191.4,368.2l-64-165.3c-10.2-26.3,2.9-55.9,29.2-66.1l0,0c26.3-10.2,55.9,2.9,66.1,29.2l64,165.3	c10.2,26.3-2.9,55.9-29.2,66.1l0,0C231.2,407.6,201.6,394.5,191.4,368.2z" class="st1"/><linearGradient id="SVGID_2_" x1="315.337" x2="315.337" y1="134.433" y2="283.118" gradientUnits="userSpaceOnUse"><stop offset="0" style="stop-color:#b20f08"/><stop offset="1" style="stop-color:#fb4e3a"/></linearGradient><path d="M276.6,250.4L258.7,204c-10.2-26.3,2.9-55.9,29.2-66.1l0,0c26.3-10.2,55.9,2.9,66.1,29.2l17.9,46.4	c10.2,26.3-2.9,55.9-29.2,66.1l0,0C316.4,289.8,286.8,276.8,276.6,250.4z" class="st2"/></svg>